<?xml version="1.0" encoding="iso-8859-1"?>
<!-- Generator: Adobe Illustrator 19.0.0, SVG Export Plug-In . SVG Version: 6.00 Build 0)  -->
<svg version="1.1" id="Capa_1" xmlns="http://www.w3.org/2000/svg" xmlns:xlink="http://www.w3.org/1999/xlink" x="0px" y="0px"
	 viewBox="0 0 512 512" style="enable-background:new 0 0 512 512;" xml:space="preserve">
<g>
	<g>
		<path d="M317,166c57.891,0,105-47.109,105-105V16h-45c-38.39,0-71.686,20.94-90,51.78C268.686,36.94,235.39,16,197,16h-45v45
			c0,57.891,47.109,105,105,105h15v61.404c-27.393,3.179-52.262,14.299-72.22,31.339c15.082,5.649,29.132,13.991,41.4,24.781
			c0.293,0.132,1.494,1.172,2.915,2.476H362v30c0,23.027-8.701,44.063-22.969,60h13.096l61.362-40.415
			c1.734-1.143,3.594-2.001,5.387-3.018c-12.041-56.072-58.947-98.778-116.876-105.25V166H317z"/>
	</g>
</g>
<g>
	<g>
		<path d="M429.998,360.634L361.121,406H227v-30h45c33.137,0,60-26.863,60-60c-3.933,0-90.868,0-93.677,0
			c-8.196,0-11.704-6.019-16.963-9.946c-36.572-32.179-91.192-34.189-130.36-6.815V496h262.006L512,376
			C493.616,350.127,457.804,342.327,429.998,360.634z"/>
	</g>
</g>
<g>
	<g>
		<rect y="316" width="61" height="180"/>
	</g>
</g>
<g>
</g>
<g>
</g>
<g>
</g>
<g>
</g>
<g>
</g>
<g>
</g>
<g>
</g>
<g>
</g>
<g>
</g>
<g>
</g>
<g>
</g>
<g>
</g>
<g>
</g>
<g>
</g>
<g>
</g>
</svg>
