<svg id="Capa_1" enable-background="new 0 0 512.892 512.892" height="512" viewBox="0 0 512.892 512.892" width="512" xmlns="http://www.w3.org/2000/svg"><g><path d="m472.609 118.516c-32.038-50.21-80.854-87.896-137.456-106.118-55.85-17.98-116.578-16.289-170.997 4.762l10.824 27.98c100.021-38.692 214.555-1.045 272.339 89.514 55.678 87.256 44.867 198.692-22.295 273.105l1.881-25.381-29.918-2.217-5.918 79.859 79.99-.004-.002-30-25.811.001c33.328-36.213 55.68-81.51 64.032-130.813 10.637-62.79-2.386-126.959-36.669-180.688z"/><path d="m65.574 378.239c-55.678-87.257-44.867-198.692 22.294-273.105l-1.881 25.381 29.918 2.217 5.918-79.859-79.99.004.002 30 25.811-.001c-33.328 36.213-55.68 81.51-64.032 130.813-10.637 62.789 2.386 126.959 36.669 180.688 32.038 50.209 80.854 87.896 137.456 106.118 25.617 8.247 52.26 12.355 78.851 12.355 31.381 0 62.688-5.722 92.146-17.118l-10.823-27.979c-100.022 38.691-214.555 1.045-272.339-89.514z"/><path d="m336.395 190.372c0 9.762 7.941 17.703 17.703 17.703h60.153c-3.875-12.773-9.254-24.889-15.931-36.148h-43.48c-10.17 0-18.445 8.275-18.445 18.445z"/><path d="m98.695 307.297h24.999c9.966 0 18.074-8.108 18.074-18.074 0-26.508 21.566-48.074 48.074-48.074h33.074c9.966 0 18.074-8.108 18.074-18.074s-8.108-18.074-18.074-18.074c-26.508 0-48.074-21.566-48.074-48.074 0-9.966-8.108-18.074-18.074-18.074h-17.342c-30.141 29.954-48.806 71.444-48.806 117.296 0 17.853 2.84 35.04 8.075 51.148z"/><path d="m255.989 90.779c-29.643 0-57.46 7.807-81.52 21.466 17.77 7.066 30.372 24.424 30.372 44.682 0 9.966 8.108 18.074 18.074 18.074 26.508 0 48.074 21.566 48.074 48.074s-21.566 48.074-48.074 48.074h-33.074c-9.966 0-18.074 8.108-18.074 18.074 0 26.508-21.566 48.074-48.074 48.074h-11.816c14.84 26.298 36.666 48.124 62.964 62.964v-11.816c0-26.508 21.566-48.074 48.074-48.074h33.074c9.966 0 18.074-8.108 18.074-18.074 0-26.508 21.566-48.074 48.074-48.074h98.235c.645-5.937.987-11.965.987-18.074s-.342-12.137-.987-18.074h-66.273c-26.304 0-47.703-21.399-47.703-47.703 0-26.712 21.732-48.445 48.445-48.445h20.731c-30.112-31.515-72.554-51.148-119.583-51.148z"/><path d="m322.137 304.223c-9.966 0-18.074 8.108-18.074 18.074 0 26.508-21.566 48.074-48.074 48.074h-33.074c-9.966 0-18.074 8.108-18.074 18.074v24.999c16.108 5.234 33.295 8.075 51.148 8.075 74.609 0 137.669-49.413 158.262-117.295h-92.114z"/></g></svg>